<svg   width="131" height="28"  version="1.1" viewBox="0.0 0.0 469.9527559055118 112.20734908136482" fill="none" stroke="none" stroke-linecap="square" stroke-miterlimit="10" xmlns:xlink="http://www.w3.org/1999/xlink" xmlns="http://www.w3.org/2000/svg"><clipPath id="p.0"><path d="m0 0l469.95276 0l0 112.20735l-469.95276 0l0 -112.20735z" clip-rule="nonzero"/></clipPath><g clip-path="url(#p.0)"><path fill="#000000" fill-opacity="0.0" d="m0 0l469.95276 0l0 112.20735l-469.95276 0z" fill-rule="evenodd"/><path fill="#000000" fill-opacity="0.0" d="m-5.569554 -17.031496l512.7874 0l0 148.66142l-512.7874 0z" fill-rule="evenodd"/><path fill="#e50815" d="m10.571072 94.3685l0 -76.34375l14.625 0l0 40.515625l17.140625 -19.484375l18.015625 0l-18.90625 20.21875l20.265625 35.093754l-15.78125 0l-13.90625 -24.84375l-6.828125 7.140625l0 17.703125l-14.625 0zm70.77025 -38.437504l-13.28125 -2.390625q2.234375 -8.015625 7.703125 -11.875q5.46875 -3.859375 16.25 -3.859375q9.796875 0 14.578125 2.328125q4.796875 2.3125 6.75 5.890625q1.953125 3.5625 1.953125 13.09375l-0.15625 17.078129q0 7.28125 0.703125 10.75q0.703125 3.46875 2.625 7.421875l-14.46875 0q-0.578125 -1.453125 -1.40625 -4.328125q-0.375 -1.296875 -0.53125 -1.71875q-3.75 3.65625 -8.015625 5.484375q-4.265625 1.8125 -9.109375 1.8125q-8.546875 0 -13.46875 -4.625q-4.921875 -4.640625 -4.921875 -11.734375q0 -4.6875 2.234375 -8.34375q2.25 -3.671875 6.28125 -5.625q4.046875 -1.9531288 11.640625 -3.4218788q10.265625 -1.921875 14.21875 -3.59375l0 -1.453125q0 -4.21875 -2.09375 -6.015625q-2.078125 -1.796875 -7.859375 -1.796875q-3.890625 0 -6.078125 1.546875q-2.1875 1.53125 -3.546875 5.375zm19.578125 11.875004q-2.8125 0.9375 -8.90625 2.25q-6.09375 1.296875 -7.96875 2.546875q-2.859375 2.03125 -2.859375 5.15625q0 3.0625 2.28125 5.3125q2.296875 2.234375 5.84375 2.234375q3.953125 0 7.546875 -2.609375q2.65625 -1.96875 3.484375 -4.84375q0.578125 -1.875 0.578125 -7.125l0 -2.921875zm79.114006 26.5625l-14.640625 0l0 -28.21875q0 -8.968754 -0.9375 -11.593754q-0.9375 -2.625 -3.046875 -4.078125q-2.109375 -1.46875 -5.078125 -1.46875q-3.796875 0 -6.828125 2.09375q-3.015625 2.078125 -4.140625 5.515625q-1.109375 3.4375 -1.109375 12.703129l0 25.046875l-14.640625 0l0 -55.312504l13.59375 0l0 8.125q7.234375 -9.375 18.234375 -9.375q4.84375 0 8.84375 1.75q4.015625 1.75 6.0625 4.453125q2.0625 2.703125 2.875 6.140625q0.8125 3.4375 0.8125 9.84375l0 34.375004z" fill-rule="nonzero"/><path fill="#09899a" d="m245.18333 94.3685l-14.640625 0l0 -28.21875q0 -8.968754 -0.9375 -11.593754q-0.9375 -2.625 -3.046875 -4.078125q-2.109375 -1.46875 -5.078125 -1.46875q-3.796875 0 -6.828125 2.09375q-3.015625 2.078125 -4.140625 5.515625q-1.109375 3.4375 -1.109375 12.703129l0 25.046875l-14.640625 0l0 -55.312504l13.59375 0l0 8.125q7.234375 -9.375 18.234375 -9.375q4.84375 0 8.84375 1.75q4.015625 1.75 6.0625 4.453125q2.0625 2.703125 2.875 6.140625q0.8125 3.4375 0.8125 9.84375l0 34.375004zm25.774887 -38.437504l-13.28125 -2.390625q2.234375 -8.015625 7.703125 -11.875q5.46875 -3.859375 16.25 -3.859375q9.796875 0 14.578125 2.328125q4.796875 2.3125 6.75 5.890625q1.953125 3.5625 1.953125 13.09375l-0.15625 17.078129q0 7.28125 0.703125 10.75q0.703125 3.46875 2.625 7.421875l-14.46875 0q-0.578125 -1.453125 -1.40625 -4.328125q-0.375 -1.296875 -0.53125 -1.71875q-3.75 3.65625 -8.015625 5.484375q-4.265625 1.8125 -9.109375 1.8125q-8.546875 0 -13.46875 -4.625q-4.921875 -4.640625 -4.921875 -11.734375q0 -4.6875 2.234375 -8.34375q2.25 -3.671875 6.28125 -5.625q4.046875 -1.9531288 11.640625 -3.4218788q10.265625 -1.921875 14.21875 -3.59375l0 -1.453125q0 -4.21875 -2.09375 -6.015625q-2.078125 -1.796875 -7.859375 -1.796875q-3.890625 0 -6.078125 1.546875q-2.1875 1.53125 -3.546875 5.375zm19.578125 11.875004q-2.8125 0.9375 -8.90625 2.25q-6.09375 1.296875 -7.96875 2.546875q-2.859375 2.03125 -2.859375 5.15625q0 3.0625 2.28125 5.3125q2.296875 2.234375 5.84375 2.234375q3.953125 0 7.546875 -2.609375q2.65625 -1.96875 3.484375 -4.84375q0.578125 -1.875 0.578125 -7.125l0 -2.921875zm28.801514 -36.25l0 -13.53125l14.640625 0l0 13.53125l-14.640625 0zm0 62.8125l0 -55.312504l14.640625 0l0 55.312504l-14.640625 0z" fill-rule="nonzero"/><path fill="#1b98ff" d="m342.56412 39.055996l8.125 0l0 -4.15625q0 -6.984373 1.484375 -10.421873q1.484375 -3.4375 5.46875 -5.59375q3.984375 -2.171875 10.078125 -2.171875q6.25 0 12.234375 1.875l-1.984375 10.21875q-3.484375 -0.84375 -6.71875 -0.84375q-3.171875 0 -4.546875 1.484375q-1.375 1.484375 -1.375 5.703123l0 3.90625l10.921875 0l0 11.515625l-10.921875 0l0 43.79688l-14.640625 0l0 -43.79688l-8.125 0l0 -11.515625zm73.954865 37.70313l14.578125 2.453125q-2.8125 8.015625 -8.890625 12.21875q-6.0625 4.1875 -15.171875 4.1875q-14.421875 0 -21.34375 -9.421875q-5.46875 -7.5625 -5.46875 -19.0625q0 -13.750004 7.1875 -21.531254q7.1875 -7.796875 18.171875 -7.796875q12.34375 0 19.46875 8.15625q7.140625 8.15625 6.828125 24.968754l-36.65625 0q0.15625 6.515625 3.53125 10.140625q3.390625 3.609375 8.4375 3.609375q3.4375 0 5.78125 -1.875q2.34375 -1.875 3.546875 -6.046875zm0.828125 -14.781254q-0.15625 -6.359375 -3.28125 -9.65625q-3.125 -3.3125 -7.609375 -3.3125q-4.78125 0 -7.90625 3.484375q-3.125 3.5 -3.078125 9.484375l21.875 0zm26.457733 -30.421873l0 -13.53125l14.640625 0l0 13.53125l-14.640625 0zm0 62.8125l0 -55.312504l14.640625 0l0 55.312504l-14.640625 0z" fill-rule="nonzero"/></g></svg>